<!--?xml version="1.0" standalone="no"?-->
              <svg id="sw-js-blob-svg" viewBox="0 0 100 100" xmlns="http://www.w3.org/2000/svg" version="1.1">
                    <defs> 
                        <linearGradient id="sw-gradient" x1="0" x2="1" y1="1" y2="0">
                            <stop id="stop1" stop-color="rgba(248, 117, 55, 1)" offset="0%"></stop>
                            <stop id="stop2" stop-color="rgba(251, 168, 31, 1)" offset="100%"></stop>
                        </linearGradient>
                    </defs>
                <path fill="url(#sw-gradient)" d="M20.7,-36.1C25,-33.5,25.2,-24.1,27.4,-16.9C29.5,-9.8,33.6,-4.9,33.9,0.1C34.1,5.2,30.6,10.4,27.8,16.6C25.1,22.7,23.2,29.8,18.7,35.1C14.2,40.4,7.1,43.8,1.4,41.4C-4.3,38.9,-8.6,30.6,-13.7,25.7C-18.9,20.8,-24.9,19.3,-29.5,15.6C-34.2,11.9,-37.6,5.9,-37.4,0.1C-37.2,-5.7,-33.4,-11.4,-29.6,-16.7C-25.9,-22.1,-22.2,-27.1,-17.3,-29.4C-12.4,-31.6,-6.2,-31.2,1,-33C8.2,-34.8,16.5,-38.8,20.7,-36.1Z" width="100%" height="100%" transform="translate(50 50)" stroke-width="0" style="transition: 0.3s;"></path>
              </svg>